<svg xmlns="http://www.w3.org/2000/svg" width="80" height="80" viewBox="0 0 80 80">
  <defs>
    <linearGradient id="synthCornerGrad" x1="1" y1="0" x2="0" y2="1">
      <stop offset="0%" stop-color="#E8396A" stop-opacity="0.5"/>
      <stop offset="100%" stop-color="#1A1030" stop-opacity="0.15"/>
    </linearGradient>
    <filter id="cornerGlow">
      <feGaussianBlur stdDeviation="1.5" result="blur"/>
      <feMerge>
        <feMergeNode in="blur"/>
        <feMergeNode in="SourceGraphic"/>
      </feMerge>
    </filter>
  </defs>
  <path d="M80 0 Q0 0 0 80" fill="url(#synthCornerGrad)"/>
  <g filter="url(#cornerGlow)">
    <line x1="80" y1="0" x2="50" y2="0" stroke="#E8396A" stroke-width="2" opacity="0.8"/>
    <line x1="80" y1="0" x2="80" y2="30" stroke="#00D4C8" stroke-width="1.5" opacity="0.7"/>
  </g>
  <g opacity="0.3">
    <line x1="70" y1="0" x2="40" y2="20" stroke="#E8396A" stroke-width="0.4"/>
    <line x1="60" y1="0" x2="30" y2="25" stroke="#E8396A" stroke-width="0.3"/>
    <line x1="0" y1="70" x2="20" y2="40" stroke="#00D4C8" stroke-width="0.4"/>
    <line x1="0" y1="60" x2="25" y2="30" stroke="#00D4C8" stroke-width="0.3"/>
  </g>
  <g opacity="0.15">
    <line x1="80" y1="0" x2="0" y2="35" stroke="#463D5A" stroke-width="0.3"/>
    <line x1="80" y1="0" x2="0" y2="45" stroke="#463D5A" stroke-width="0.3"/>
    <line x1="80" y1="0" x2="0" y2="55" stroke="#463D5A" stroke-width="0.3"/>
    <line x1="80" y1="0" x2="35" y2="0" stroke="#463D5A" stroke-width="0.3"/>
    <line x1="80" y1="0" x2="45" y2="0" stroke="#463D5A" stroke-width="0.3"/>
    <line x1="80" y1="0" x2="55" y2="0" stroke="#463D5A" stroke-width="0.3"/>
  </g>
  <g filter="url(#cornerGlow)" opacity="0.35">
    <polygon points="55,5 40,20 65,20" fill="none" stroke="#00D4C8" stroke-width="0.6"/>
  </g>
  <circle cx="10" cy="10" r="1" fill="#FFFFFF" opacity="0.4"/>
</svg>